<?xml version="1.0" encoding="UTF-8"?>
<svg id="Ebene_1" data-name="Ebene 1" xmlns="http://www.w3.org/2000/svg" version="1.1" xmlns:xlink="http://www.w3.org/1999/xlink" viewBox="0 0 467 446.4">
  <defs>
    <style>
      .cls-1 {
        fill: url(#linear-gradient);
      }

      .cls-1, .cls-2, .cls-3, .cls-4 {
        stroke-width: 0px;
      }

      .cls-2, .cls-5 {
        fill: #000;
      }

      .cls-5 {
        font-family: Candara, Candara;
        font-size: 60px;
      }

      .cls-6 {
        fill: #ea0f24;
        font-family: VladimirScript, 'Vladimir Script';
        font-size: 150px;
      }

      .cls-3 {
        fill: url(#linear-gradient-2);
      }

      .cls-4 {
        fill: url(#linear-gradient-3);
      }
    </style>
    <linearGradient id="linear-gradient" x1="45" y1="108.4" x2="68.7" y2="108.4" gradientTransform="translate(0 445.9) scale(1 -1)" gradientUnits="userSpaceOnUse">
      <stop offset="0" stop-color="#f20500"/>
      <stop offset="0" stop-color="#f20500"/>
      <stop offset="1" stop-color="#d90575"/>
    </linearGradient>
    <linearGradient id="linear-gradient-2" x1="373" y1="108.4" x2="399" y2="108.4" gradientTransform="translate(0 445.9) scale(1 -1)" gradientUnits="userSpaceOnUse">
      <stop offset="0" stop-color="#f20500"/>
      <stop offset="0" stop-color="#f20500"/>
      <stop offset="1" stop-color="#d90575"/>
    </linearGradient>
    <linearGradient id="linear-gradient-3" x1="396.1" y1="106.7" x2="419.8" y2="106.7" gradientTransform="translate(0 445.9) scale(1 -1)" gradientUnits="userSpaceOnUse">
      <stop offset="0" stop-color="#f20500"/>
      <stop offset="0" stop-color="#f20500"/>
      <stop offset="1" stop-color="#d90575"/>
    </linearGradient>
  </defs>
  <path class="cls-2" d="M269.2,247.5h-75c-2.6,0-4.8-2.1-4.8-4.8s2.1-4.8,4.8-4.8h75c2.6,0,4.8,2.1,4.8,4.8-.1,2.6-2.2,4.8-4.8,4.8ZM264.1,264.7h-64.6c-2.6,0-4.8-2.1-4.8-4.8s2.1-4.8,4.8-4.8h64.6c2.6,0,4.8,2.1,4.8,4.8s-2.1,4.8-4.8,4.8ZM248,281.9h-32.6c-2.6,0-4.8-2.1-4.8-4.8s2.1-4.8,4.8-4.8h32.6c2.6,0,4.8,2.1,4.8,4.8-.1,2.7-2.2,4.8-4.8,4.8Z"/>
  <path class="cls-2" d="M324.2,108.1c-2.5-17.7-9.4-33.6-20.7-47.4-16-19.4-36.4-30.7-61.4-33.7-3.3-.4-6.6-.5-9.8-.5h-3.4c-2.3.1-4.6.2-6.8.5-25,3-45.5,14.3-61.4,33.7-11.6,13.8-18.4,29.7-20.9,47.4-2.4,16.9-.5,33.2,5.8,49,5.1,12.8,12.6,23.9,22.4,33.5,3.5,3.4,7.1,6.8,9.8,10.9,4.5,6.8,7.1,14.1,7.8,22,.3,2.4,2.3,4.3,4.7,4.3h.2c.3,0,.5,0,.8-.1.2-.1.5-.1.7-.2.2-.1.5-.2.7-.3s.4-.3.6-.4c.2-.2.4-.3.5-.5.2-.2.3-.4.4-.6.1-.2.3-.4.4-.7.1-.2.2-.5.2-.7s.1-.3.1-.5v-.6c0-.3,0-.6-.1-.9,0-.3-.1-.6-.1-.9s-.1-.6-.1-.9-.1-.6-.1-.9-.1-.6-.1-.9-.1-.6-.1-.9-.1-.6-.2-.9c-.1-.3-.1-.6-.2-.9-.1-.3-.1-.6-.2-.9-.1-.3-.1-.6-.2-.9-.1-.3-.1-.6-.2-.9-.1-.3-.1-.6-.2-.9-.1-.3-.2-.6-.2-.9l-.3-.9c-.1-.3-.2-.6-.3-.8-.1-.3-.2-.6-.3-.8-.1-.3-.2-.6-.3-.8-.1-.3-.2-.6-.3-.8-.1-.3-.2-.5-.3-.8s-.2-.5-.3-.8-.2-.5-.3-.8-.2-.5-.4-.8c-.1-.3-.2-.5-.4-.8-.1-.3-.3-.5-.4-.8s-.3-.5-.4-.8c-.1-.3-.3-.5-.4-.8s-.3-.5-.4-.8c-.1-.3-.3-.5-.4-.8s-.3-.5-.5-.8-.3-.5-.5-.8-.3-.5-.5-.8-.3-.5-.5-.8c-.2-.2-.3-.5-.5-.7s-.3-.5-.5-.7-.4-.5-.5-.7c-.2-.2-.4-.5-.6-.7-.2-.2-.4-.5-.6-.7s-.4-.5-.6-.7c-.2-.2-.4-.5-.6-.7s-.4-.5-.6-.7c-.2-.2-.4-.5-.6-.7-4.3-4.8-9.3-8.9-13.4-13.9-12.8-15.8-18.7-33.9-19.2-54-.2-9.5,1.5-18.8,4.4-27.8,5.3-16.2,15-29.4,28.2-39.9,12.8-10.2,27.4-16.2,43.8-17.6,2.3-.2,4.6-.3,6.8-.3s5.1,0,7.7.3c16.5,1.4,31,7.4,43.8,17.6,13.2,10.5,22.9,23.7,28.2,39.9,2.9,9,4.7,18.3,4.4,27.8-.5,20.1-6.4,38.2-19.2,54-4.1,5-9.1,9.2-13.4,13.9-.2.2-.4.5-.6.7s-.4.5-.6.7-.4.5-.6.7-.4.5-.6.7-.4.5-.6.7-.4.5-.6.7-.4.5-.5.7c-.2.2-.4.5-.5.7-.2.2-.3.5-.5.7s-.3.5-.5.7c-.2.3-.3.5-.5.8s-.3.5-.5.8-.3.5-.5.8c-.1.3-.3.5-.4.8s-.3.5-.4.8-.3.5-.4.8-.3.5-.4.8-.3.5-.4.8-.3.5-.4.8-.2.5-.4.8c-.1.3-.2.5-.3.8s-.2.5-.3.8c-.1.3-.2.5-.3.8s-.2.6-.3.8c-.1.3-.2.6-.3.8-.1.3-.2.6-.3.8-.1.3-.2.6-.3.8l-.3.9c-.1.3-.2.6-.2.9-.1.3-.2.6-.2.9-.1.3-.1.6-.2.9-.1.3-.1.6-.2.9-.1.3-.1.6-.2.9-.1.3-.1.6-.2.9-.1.3-.1.6-.2.9,0,.3-.1.6-.1.9s-.1.6-.1.9-.1.6-.1.9-.1.6-.1.9-.1.6-.1.9-.1.6-.1.9v.6c0,.2.1.3.1.5.1.2.1.5.2.7s.2.4.4.7c.1.2.3.4.4.6.2.2.3.4.5.5.2.2.4.3.6.4.2.1.4.2.7.3.2.1.5.2.7.2.3.1.5.1.8.1h.2c2.5,0,4.5-1.9,4.7-4.3.7-7.9,3.3-15.2,7.8-22,2.7-4.1,6.3-7.5,9.8-10.9,9.9-9.6,17.4-20.7,22.4-33.5,6.9-15.7,8.8-32,6.5-48.9h0Z"/>
  <path class="cls-1" d="M45,335.2v4.5l23.7,15.9v-5.9l-18.4-12.1v-.3l18.4-12.1v-5.8l-23.7,15.8Z"/>
  <path class="cls-3" d="M393.6,310.2l-20.6,54.7h5.4l20.7-54.7h-5.5Z"/>
  <path class="cls-4" d="M396.2,321.1v5.9l18.3,12.1v.2l-18.3,12.2v5.8l23.7-15.8v-4.5l-23.7-15.9Z"/>
  <text class="cls-5" transform="translate(83.5 355.6)"><tspan x="0" y="0">Rahul Aher</tspan></text>
  <text class="cls-6" transform="translate(222.6 246.1) rotate(-51.2)"><tspan x="0" y="0">R</tspan></text>
</svg>